<mxfile host="app.diagrams.net" modified="2024-03-04T08:05:40.601Z" agent="Mozilla/5.0 (Windows NT 10.0; Win64; x64) AppleWebKit/537.36 (KHTML, like Gecko) Chrome/122.0.0.0 Safari/537.36" etag="f7bHJtykcZTjfJLU-07P" version="24.0.1" type="github">
  <diagram name="第 1 页" id="kUwE8BqdAnwyLQq2LujR">
    <mxGraphModel dx="1444" dy="895" grid="1" gridSize="10" guides="1" tooltips="1" connect="1" arrows="1" fold="1" page="1" pageScale="1" pageWidth="827" pageHeight="1169" math="0" shadow="0">
      <root>
        <mxCell id="0" />
        <mxCell id="1" parent="0" />
        <mxCell id="XPNMDbuWubghj81jwDPy-1" value="AND" style="rounded=0;whiteSpace=wrap;html=1;fontFamily=Times New Roman;fontSize=18;strokeWidth=2;fillColor=#dae8fc;strokeColor=#6c8ebf;" parent="1" vertex="1">
          <mxGeometry x="307" y="80" width="101" height="60" as="geometry" />
        </mxCell>
        <mxCell id="XPNMDbuWubghj81jwDPy-2" value="AND" style="rounded=0;whiteSpace=wrap;html=1;fontFamily=Times New Roman;fontSize=18;strokeWidth=2;fillColor=#D8E6FA;strokeColor=#6c8ebf;" parent="1" vertex="1">
          <mxGeometry x="416.5" y="204" width="99.5" height="60" as="geometry" />
        </mxCell>
        <mxCell id="XPNMDbuWubghj81jwDPy-3" value="OR" style="rounded=0;whiteSpace=wrap;html=1;fontFamily=Times New Roman;fontSize=18;strokeWidth=2;fillColor=#f8cecc;strokeColor=#b85450;" parent="1" vertex="1">
          <mxGeometry x="521" y="328" width="100" height="60" as="geometry" />
        </mxCell>
        <mxCell id="XPNMDbuWubghj81jwDPy-4" value="" style="endArrow=none;html=1;rounded=0;entryX=0.75;entryY=1;entryDx=0;entryDy=0;exitX=0.5;exitY=0;exitDx=0;exitDy=0;fontFamily=Times New Roman;fontSize=18;strokeWidth=2;" parent="1" source="XPNMDbuWubghj81jwDPy-2" target="XPNMDbuWubghj81jwDPy-1" edge="1">
          <mxGeometry width="50" height="50" relative="1" as="geometry">
            <mxPoint x="458" y="420" as="sourcePoint" />
            <mxPoint x="508" y="370" as="targetPoint" />
          </mxGeometry>
        </mxCell>
        <mxCell id="XPNMDbuWubghj81jwDPy-5" value="" style="endArrow=none;html=1;rounded=0;entryX=0.75;entryY=1;entryDx=0;entryDy=0;exitX=0.5;exitY=0;exitDx=0;exitDy=0;fontFamily=Times New Roman;fontSize=18;strokeWidth=2;" parent="1" source="XPNMDbuWubghj81jwDPy-3" target="XPNMDbuWubghj81jwDPy-2" edge="1">
          <mxGeometry width="50" height="50" relative="1" as="geometry">
            <mxPoint x="428" y="430" as="sourcePoint" />
            <mxPoint x="478" y="380" as="targetPoint" />
          </mxGeometry>
        </mxCell>
        <mxCell id="XPNMDbuWubghj81jwDPy-6" value="A" style="ellipse;whiteSpace=wrap;html=1;aspect=fixed;fontFamily=Times New Roman;fontSize=18;strokeWidth=2;fillColor=#DAEDD9;strokeColor=#82b366;" parent="1" vertex="1">
          <mxGeometry x="243" y="200" width="70" height="70" as="geometry" />
        </mxCell>
        <mxCell id="XPNMDbuWubghj81jwDPy-7" value="B" style="ellipse;whiteSpace=wrap;html=1;aspect=fixed;fontFamily=Times New Roman;fontSize=18;strokeWidth=2;fillColor=#d5e8d4;strokeColor=#82b366;" parent="1" vertex="1">
          <mxGeometry x="356" y="324" width="70" height="70" as="geometry" />
        </mxCell>
        <mxCell id="XPNMDbuWubghj81jwDPy-8" value="C" style="ellipse;whiteSpace=wrap;html=1;aspect=fixed;fontFamily=Times New Roman;fontSize=18;strokeWidth=2;fillColor=#d5e8d4;strokeColor=#82b366;" parent="1" vertex="1">
          <mxGeometry x="463" y="450" width="70" height="70" as="geometry" />
        </mxCell>
        <mxCell id="XPNMDbuWubghj81jwDPy-9" value="D" style="ellipse;whiteSpace=wrap;html=1;aspect=fixed;fontSize=18;fontFamily=Times New Roman;strokeWidth=2;fillColor=#d5e8d4;strokeColor=#82b366;" parent="1" vertex="1">
          <mxGeometry x="635" y="452" width="70" height="70" as="geometry" />
        </mxCell>
        <mxCell id="XPNMDbuWubghj81jwDPy-10" value="" style="endArrow=none;html=1;rounded=0;entryX=0.25;entryY=1;entryDx=0;entryDy=0;exitX=0.5;exitY=0;exitDx=0;exitDy=0;fontFamily=Times New Roman;fontSize=18;strokeWidth=2;" parent="1" source="XPNMDbuWubghj81jwDPy-6" target="XPNMDbuWubghj81jwDPy-1" edge="1">
          <mxGeometry width="50" height="50" relative="1" as="geometry">
            <mxPoint x="255" y="185" as="sourcePoint" />
            <mxPoint x="305" y="135" as="targetPoint" />
          </mxGeometry>
        </mxCell>
        <mxCell id="XPNMDbuWubghj81jwDPy-11" value="" style="endArrow=none;html=1;rounded=0;entryX=0.25;entryY=1;entryDx=0;entryDy=0;exitX=0.5;exitY=0;exitDx=0;exitDy=0;fontFamily=Times New Roman;fontSize=18;strokeWidth=2;" parent="1" source="XPNMDbuWubghj81jwDPy-7" target="XPNMDbuWubghj81jwDPy-2" edge="1">
          <mxGeometry width="50" height="50" relative="1" as="geometry">
            <mxPoint x="415" y="345" as="sourcePoint" />
            <mxPoint x="465" y="295" as="targetPoint" />
          </mxGeometry>
        </mxCell>
        <mxCell id="XPNMDbuWubghj81jwDPy-12" value="" style="endArrow=none;html=1;rounded=0;entryX=0.25;entryY=1;entryDx=0;entryDy=0;exitX=0.5;exitY=0;exitDx=0;exitDy=0;fontFamily=Times New Roman;fontSize=18;strokeWidth=2;" parent="1" source="XPNMDbuWubghj81jwDPy-8" target="XPNMDbuWubghj81jwDPy-3" edge="1">
          <mxGeometry width="50" height="50" relative="1" as="geometry">
            <mxPoint x="535" y="455" as="sourcePoint" />
            <mxPoint x="585" y="405" as="targetPoint" />
          </mxGeometry>
        </mxCell>
        <mxCell id="XPNMDbuWubghj81jwDPy-13" value="" style="endArrow=none;html=1;rounded=0;entryX=0.75;entryY=1;entryDx=0;entryDy=0;exitX=0.5;exitY=0;exitDx=0;exitDy=0;fontFamily=Times New Roman;fontSize=18;strokeWidth=2;" parent="1" source="XPNMDbuWubghj81jwDPy-9" target="XPNMDbuWubghj81jwDPy-3" edge="1">
          <mxGeometry width="50" height="50" relative="1" as="geometry">
            <mxPoint x="655" y="455" as="sourcePoint" />
            <mxPoint x="705" y="405" as="targetPoint" />
          </mxGeometry>
        </mxCell>
        <mxCell id="XPNMDbuWubghj81jwDPy-14" value="&lt;font style=&quot;font-size: 19px;&quot;&gt;(1),c=1&lt;/font&gt;" style="text;html=1;align=center;verticalAlign=middle;resizable=0;points=[];autosize=1;fontSize=18;fontFamily=Times New Roman;strokeWidth=2;" parent="1" vertex="1">
          <mxGeometry x="317.5" y="45" width="80" height="40" as="geometry" />
        </mxCell>
        <mxCell id="XPNMDbuWubghj81jwDPy-15" value="&lt;font style=&quot;font-size: 19px;&quot;&gt;c=2&lt;/font&gt;" style="text;html=1;align=center;verticalAlign=middle;resizable=0;points=[];autosize=1;fontSize=18;fontFamily=Times New Roman;strokeWidth=2;" parent="1" vertex="1">
          <mxGeometry x="332.5" y="135" width="50" height="40" as="geometry" />
        </mxCell>
        <mxCell id="XPNMDbuWubghj81jwDPy-16" value="&lt;font style=&quot;font-size: 19px;&quot;&gt;(1,1)&lt;/font&gt;" style="text;html=1;align=center;verticalAlign=middle;resizable=0;points=[];autosize=1;fontSize=18;fontFamily=Times New Roman;strokeWidth=2;" parent="1" vertex="1">
          <mxGeometry x="444.25" y="164" width="60" height="40" as="geometry" />
        </mxCell>
        <mxCell id="XPNMDbuWubghj81jwDPy-17" value="&lt;font style=&quot;font-size: 19px;&quot;&gt;c=3&lt;/font&gt;" style="text;html=1;align=center;verticalAlign=middle;resizable=0;points=[];autosize=1;fontSize=18;fontFamily=Times New Roman;strokeWidth=2;" parent="1" vertex="1">
          <mxGeometry x="444.25" y="259" width="50" height="40" as="geometry" />
        </mxCell>
        <mxCell id="XPNMDbuWubghj81jwDPy-18" value="(1,1,1)" style="text;html=1;align=center;verticalAlign=middle;resizable=0;points=[];autosize=1;fontSize=19;fontFamily=Times New Roman;strokeWidth=2;" parent="1" vertex="1">
          <mxGeometry x="550" y="284" width="70" height="40" as="geometry" />
        </mxCell>
        <mxCell id="XPNMDbuWubghj81jwDPy-19" value="&lt;font style=&quot;font-size: 19px;&quot;&gt;(0,-1)&lt;/font&gt;" style="text;html=1;align=center;verticalAlign=middle;resizable=0;points=[];autosize=1;fontSize=18;fontFamily=Times New Roman;strokeWidth=2;" parent="1" vertex="1">
          <mxGeometry x="243" y="270" width="70" height="40" as="geometry" />
        </mxCell>
        <mxCell id="XPNMDbuWubghj81jwDPy-20" value="&lt;font style=&quot;font-size: 19px;&quot;&gt;(0,0,-1)&lt;/font&gt;" style="text;html=1;align=center;verticalAlign=middle;resizable=0;points=[];autosize=1;fontSize=18;fontFamily=Times New Roman;strokeWidth=2;" parent="1" vertex="1">
          <mxGeometry x="351" y="394" width="80" height="40" as="geometry" />
        </mxCell>
        <mxCell id="XPNMDbuWubghj81jwDPy-21" value="(1,1,1)" style="text;html=1;align=center;verticalAlign=middle;resizable=0;points=[];autosize=1;fontSize=19;fontFamily=Times New Roman;strokeWidth=2;" parent="1" vertex="1">
          <mxGeometry x="463" y="522" width="70" height="40" as="geometry" />
        </mxCell>
        <mxCell id="XPNMDbuWubghj81jwDPy-22" value="(1,1,1)" style="text;html=1;align=center;verticalAlign=middle;resizable=0;points=[];autosize=1;fontSize=19;fontFamily=Times New Roman;strokeWidth=2;" parent="1" vertex="1">
          <mxGeometry x="640" y="522" width="70" height="40" as="geometry" />
        </mxCell>
      </root>
    </mxGraphModel>
  </diagram>
</mxfile>
